<?xml version="1.0" encoding="UTF-8"?>
<!DOCTYPE svg PUBLIC "-//W3C//DTD SVG 1.1//EN" "http://www.w3.org/Graphics/SVG/1.1/DTD/svg11.dtd">
<svg xmlns="http://www.w3.org/2000/svg" version="1.1" width="512px" height="512px" style="shape-rendering:geometricPrecision; text-rendering:geometricPrecision; image-rendering:optimizeQuality; fill-rule:evenodd; clip-rule:evenodd" xmlns:xlink="http://www.w3.org/1999/xlink">
<g><path style="opacity:0.997" fill="#000000" d="M 511.5,56.5 C 511.5,189.167 511.5,321.833 511.5,454.5C 508.351,462.481 502.684,467.981 494.5,471C 387.444,471.994 280.444,471.66 173.5,470C 166.851,466.686 162.351,461.519 160,454.5C 159.333,417.833 159.333,381.167 160,344.5C 165.457,330.518 175.624,325.018 190.5,328C 198.667,330.833 204.167,336.333 207,344.5C 207.5,370.831 207.667,397.165 207.5,423.5C 292.833,423.5 378.167,423.5 463.5,423.5C 463.5,311.5 463.5,199.5 463.5,87.5C 378.167,87.5 292.833,87.5 207.5,87.5C 207.667,113.835 207.5,140.169 207,166.5C 201.543,180.482 191.376,185.982 176.5,183C 168.333,180.167 162.833,174.667 160,166.5C 159.333,129.833 159.333,93.1667 160,56.5C 162.351,49.4808 166.851,44.3141 173.5,41C 280.444,39.3398 387.444,39.0065 494.5,40C 502.684,43.0191 508.351,48.5191 511.5,56.5 Z"/></g>
<g><path style="opacity:0.99" fill="#000000" d="M -0.5,262.5 C -0.5,257.833 -0.5,253.167 -0.5,248.5C 2.64896,240.519 8.31563,235.019 16.5,232C 111.167,231.667 205.833,231.333 300.5,231C 289.333,219.833 278.167,208.667 267,197.5C 259.455,182.009 262.955,169.843 277.5,161C 285.785,158.544 293.785,159.211 301.5,163C 327.667,189.167 353.833,215.333 380,241.5C 384.667,250.833 384.667,260.167 380,269.5C 353.833,295.667 327.667,321.833 301.5,348C 288.291,354.41 276.791,352.243 267,341.5C 262.333,332.167 262.333,322.833 267,313.5C 278.167,302.333 289.333,291.167 300.5,280C 205.833,279.667 111.167,279.333 16.5,279C 8.31563,275.981 2.64896,270.481 -0.5,262.5 Z"/></g>
</svg>
