<?xml version="1.0" encoding="UTF-8"?>
<!DOCTYPE svg PUBLIC "-//W3C//DTD SVG 1.1//EN" "http://www.w3.org/Graphics/SVG/1.1/DTD/svg11.dtd">
<svg xmlns="http://www.w3.org/2000/svg" version="1.1" width="512px" height="512px" style="shape-rendering:geometricPrecision; text-rendering:geometricPrecision; image-rendering:optimizeQuality; fill-rule:evenodd; clip-rule:evenodd" xmlns:xlink="http://www.w3.org/1999/xlink">
<g><path style="opacity:0.979" fill="#000000" d="M 31.5,-0.5 C 103.167,-0.5 174.833,-0.5 246.5,-0.5C 263.713,7.63814 267.879,20.3048 259,37.5C 255.395,41.7211 250.895,44.5545 245.5,46C 184.501,46.5 123.501,46.6667 62.5,46.5C 62.5,185.833 62.5,325.167 62.5,464.5C 123.501,464.333 184.501,464.5 245.5,465C 259.394,469.944 265.228,479.778 263,494.5C 260.316,503.016 254.816,508.683 246.5,511.5C 174.833,511.5 103.167,511.5 31.5,511.5C 23.1193,508.281 17.6193,502.281 15,493.5C 14.3333,334.833 14.3333,176.167 15,17.5C 17.6193,8.71947 23.1193,2.71947 31.5,-0.5 Z"/></g>
<g><path style="opacity:0.976" fill="#000000" d="M 233.5,123.5 C 247.981,121.318 257.814,126.985 263,140.5C 264.457,148.094 263.123,155.094 259,161.5C 235.833,184.667 212.667,207.833 189.5,231C 284.833,231.333 380.167,231.667 475.5,232C 493.765,236.947 499.931,248.447 494,266.5C 489.939,273.78 483.773,277.947 475.5,279C 380.167,279.333 284.833,279.667 189.5,280C 212.667,303.167 235.833,326.333 259,349.5C 266.459,362.509 264.626,374.009 253.5,384C 244.5,388.667 235.5,388.667 226.5,384C 188.333,345.833 150.167,307.667 112,269.5C 106,260.167 106,250.833 112,241.5C 150.167,203.333 188.333,165.167 226.5,127C 228.925,125.787 231.259,124.621 233.5,123.5 Z"/></g>
</svg>
