<?xml version="1.0" encoding="UTF-8"?>
<!DOCTYPE svg PUBLIC "-//W3C//DTD SVG 1.1//EN" "http://www.w3.org/Graphics/SVG/1.1/DTD/svg11.dtd">
<svg xmlns="http://www.w3.org/2000/svg" version="1.1" width="896px" height="578px" style="shape-rendering:geometricPrecision; text-rendering:geometricPrecision; image-rendering:optimizeQuality; fill-rule:evenodd; clip-rule:evenodd" xmlns:xlink="http://www.w3.org/1999/xlink">
<g><path style="opacity:0.985" fill="#f66b6b" d="M 271.5,41.5 C 288.522,41.6853 302.022,48.6853 312,62.5C 324.251,86.1253 320.085,106.292 299.5,123C 281.793,133.45 264.46,132.783 247.5,121C 227.666,102.823 224.833,82.3226 239,59.5C 247.719,48.7418 258.553,42.7418 271.5,41.5 Z"/></g>
<g><path style="opacity:0.981" fill="#f76c6c" d="M 409.5,41.5 C 432.038,42.1887 447.204,53.1887 455,74.5C 459.783,91.8683 455.617,106.702 442.5,119C 424.643,133.322 405.977,134.655 386.5,123C 364.364,102.707 362.197,80.54 380,56.5C 388.227,48.1372 398.06,43.1372 409.5,41.5 Z"/></g>
<g><path style="opacity:0.989" fill="#f76c6c" d="M 113.5,231.5 C 115.021,235.657 115.854,239.99 116,244.5C 116.528,275.768 121.861,305.102 132,332.5C 137.347,345.216 144.18,356.883 152.5,367.5C 153.026,369.23 154.026,370.564 155.5,371.5C 156.026,373.23 157.026,374.564 158.5,375.5C 163.129,381.797 168.462,387.463 174.5,392.5C 199.851,415.251 228.685,431.585 261,441.5C 278.577,448.439 296.743,453.605 315.5,457C 331.727,460.07 348.06,462.403 364.5,464C 418.176,468.441 471.842,468.774 525.5,465C 575.412,460.643 622.246,449.143 666,430.5C 675.5,425 685,419.5 694.5,414C 703.648,407.346 712.315,400.18 720.5,392.5C 721.5,392.167 722.167,391.5 722.5,390.5C 752.584,358.775 770.084,321.775 775,279.5C 776.195,266.183 777.195,252.85 778,239.5C 778.653,236.861 779.82,234.527 781.5,232.5C 783.5,231.167 785.167,229.5 786.5,227.5C 788.767,226.577 791.1,225.744 793.5,225C 808.5,224.333 823.5,224.333 838.5,225C 845.857,227.352 851.023,232.186 854,239.5C 855.732,279.091 849.732,317.091 836,353.5C 831.371,365.424 826.204,377.09 820.5,388.5C 818.917,390.663 817.584,392.996 816.5,395.5C 814.917,397.663 813.584,399.996 812.5,402.5C 811.599,403.29 810.932,404.29 810.5,405.5C 809.599,406.29 808.932,407.29 808.5,408.5C 807.094,408.973 806.427,409.973 806.5,411.5C 804.478,413.531 802.811,415.865 801.5,418.5C 800.512,419.795 799.512,421.128 798.5,422.5C 797.833,422.5 797.5,422.833 797.5,423.5C 795.457,424.579 794.124,426.246 793.5,428.5C 792.833,428.5 792.5,428.833 792.5,429.5C 791.833,429.5 791.5,429.833 791.5,430.5C 789.457,431.579 788.124,433.246 787.5,435.5C 786.833,435.5 786.5,435.833 786.5,436.5C 785.833,436.5 785.5,436.833 785.5,437.5C 784.833,437.5 784.5,437.833 784.5,438.5C 783.833,438.5 783.5,438.833 783.5,439.5C 782.833,439.5 782.5,439.833 782.5,440.5C 781.833,440.5 781.5,440.833 781.5,441.5C 780.833,441.5 780.5,441.833 780.5,442.5C 779.833,442.5 779.5,442.833 779.5,443.5C 778.833,443.5 778.5,443.833 778.5,444.5C 775.5,446.833 772.833,449.5 770.5,452.5C 733.702,484.408 691.702,507.241 644.5,521C 589.217,536.286 532.884,544.786 475.5,546.5C 413.728,547.171 352.395,542.337 291.5,532C 245.808,522.492 202.808,505.992 162.5,482.5C 84.1404,432.475 42.9738,360.808 39,267.5C 38.3333,256.833 38.3333,246.167 39,235.5C 42.7399,226.654 48.9066,221.654 57.5,220.5C 71.8149,221.283 86.1482,221.783 100.5,222C 102.246,222.471 103.913,223.138 105.5,224C 108.692,226.028 111.359,228.528 113.5,231.5 Z"/></g>
<g><path style="opacity:0.004" fill="#fe0000" d="M 786.5,227.5 C 785.833,226.167 785.833,226.167 786.5,227.5 Z"/></g>
<g><path style="opacity:0.004" fill="#000000" d="M 113.5,230.5 C 114.833,231.167 114.833,231.167 113.5,230.5 Z"/></g>
<g><path style="opacity:0.004" fill="#fe0000" d="M 781.5,232.5 C 780.833,231.167 780.833,231.167 781.5,232.5 Z"/></g>
<g><path style="opacity:0.004" fill="#000000" d="M 152.5,366.5 C 153.833,367.167 153.833,367.167 152.5,366.5 Z"/></g>
<g><path style="opacity:0.004" fill="#fe0000" d="M 155.5,370.5 C 156.833,371.167 156.833,371.167 155.5,370.5 Z"/></g>
<g><path style="opacity:0.004" fill="#fe0000" d="M 158.5,374.5 C 159.833,375.167 159.833,375.167 158.5,374.5 Z"/></g>
<g><path style="opacity:0.004" fill="#fe0000" d="M 820.5,388.5 C 821.833,389.167 821.833,389.167 820.5,388.5 Z"/></g>
<g><path style="opacity:0.004" fill="#fe0000" d="M 722.5,390.5 C 721.833,389.167 721.833,389.167 722.5,390.5 Z"/></g>
<g><path style="opacity:0.004" fill="#fe0000" d="M 174.5,391.5 C 175.833,392.167 175.833,392.167 174.5,391.5 Z"/></g>
<g><path style="opacity:0.004" fill="#000000" d="M 720.5,392.5 C 719.833,391.167 719.833,391.167 720.5,392.5 Z"/></g>
<g><path style="opacity:0.004" fill="#fe0000" d="M 816.5,395.5 C 817.833,396.167 817.833,396.167 816.5,395.5 Z"/></g>
<g><path style="opacity:0.004" fill="#fe0000" d="M 812.5,402.5 C 813.833,403.167 813.833,403.167 812.5,402.5 Z"/></g>
<g><path style="opacity:0.004" fill="#fe0000" d="M 810.5,405.5 C 811.833,406.167 811.833,406.167 810.5,405.5 Z"/></g>
<g><path style="opacity:0.004" fill="#fe0000" d="M 808.5,408.5 C 809.833,409.167 809.833,409.167 808.5,408.5 Z"/></g>
<g><path style="opacity:0.004" fill="#000000" d="M 806.5,411.5 C 807.833,412.167 807.833,412.167 806.5,411.5 Z"/></g>
<g><path style="opacity:0.004" fill="#000000" d="M 801.5,418.5 C 802.833,419.167 802.833,419.167 801.5,418.5 Z"/></g>
<g><path style="opacity:0.004" fill="#fe0000" d="M 798.5,422.5 C 799.833,423.167 799.833,423.167 798.5,422.5 Z"/></g>
<g><path style="opacity:0.004" fill="#fe0000" d="M 797.5,423.5 C 797.833,423.5 798.167,423.5 798.5,423.5C 798.315,424.17 797.981,424.17 797.5,423.5 Z"/></g>
<g><path style="opacity:0.004" fill="#fe0000" d="M 793.5,428.5 C 794.833,429.167 794.833,429.167 793.5,428.5 Z"/></g>
<g><path style="opacity:0.004" fill="#fe0000" d="M 792.5,429.5 C 792.833,429.5 793.167,429.5 793.5,429.5C 793.315,430.17 792.981,430.17 792.5,429.5 Z"/></g>
<g><path style="opacity:0.004" fill="#fe0000" d="M 791.5,430.5 C 791.833,430.5 792.167,430.5 792.5,430.5C 792.315,431.17 791.981,431.17 791.5,430.5 Z"/></g>
<g><path style="opacity:0.004" fill="#fe0000" d="M 787.5,435.5 C 788.833,436.167 788.833,436.167 787.5,435.5 Z"/></g>
<g><path style="opacity:0.004" fill="#fe0000" d="M 786.5,436.5 C 786.833,436.5 787.167,436.5 787.5,436.5C 787.315,437.17 786.981,437.17 786.5,436.5 Z"/></g>
<g><path style="opacity:0.004" fill="#fe0000" d="M 785.5,437.5 C 785.833,437.5 786.167,437.5 786.5,437.5C 786.315,438.17 785.981,438.17 785.5,437.5 Z"/></g>
<g><path style="opacity:0.004" fill="#fe0000" d="M 784.5,438.5 C 784.833,438.5 785.167,438.5 785.5,438.5C 785.315,439.17 784.981,439.17 784.5,438.5 Z"/></g>
<g><path style="opacity:0.004" fill="#fe0000" d="M 783.5,439.5 C 783.833,439.5 784.167,439.5 784.5,439.5C 784.315,440.17 783.981,440.17 783.5,439.5 Z"/></g>
<g><path style="opacity:0.004" fill="#fe0000" d="M 782.5,440.5 C 782.833,440.5 783.167,440.5 783.5,440.5C 783.315,441.17 782.981,441.17 782.5,440.5 Z"/></g>
<g><path style="opacity:0.004" fill="#fe0000" d="M 781.5,441.5 C 781.833,441.5 782.167,441.5 782.5,441.5C 782.315,442.17 781.981,442.17 781.5,441.5 Z"/></g>
<g><path style="opacity:0.004" fill="#fe0000" d="M 780.5,442.5 C 780.833,442.5 781.167,442.5 781.5,442.5C 781.315,443.17 780.981,443.17 780.5,442.5 Z"/></g>
<g><path style="opacity:0.004" fill="#fe0000" d="M 779.5,443.5 C 779.833,443.5 780.167,443.5 780.5,443.5C 780.315,444.17 779.981,444.17 779.5,443.5 Z"/></g>
<g><path style="opacity:0.004" fill="#fe0000" d="M 778.5,444.5 C 778.833,444.5 779.167,444.5 779.5,444.5C 779.315,445.17 778.981,445.17 778.5,444.5 Z"/></g>
<g><path style="opacity:0.004" fill="#fe0000" d="M 770.5,452.5 C 771.833,453.167 771.833,453.167 770.5,452.5 Z"/></g>
</svg>
